# xmcd
#
# Track frame offsets:
#	150
#	12015
#	25575
#	39122
#	49687
#	60765
#	82277
#	94375
#	105740
#	120002
#	128592
#	138132
#
# Disc length: 1999 seconds
# Revision: 2
# Processed by: cddbd v1.5.2PL0 Copyright (c) Steve Scherf et al.
# Submitted via: dBpowerAMP V12.0
#
DISCID=8107cd0c
DTITLE=Various Artist - Blues Box, Vol. 5
DYEAR=1996
DGENRE=Blues
TTITLE0=James Cotton - Off The Wall
TTITLE1=Louis Jordan - I Got The Walkin' Blues
TTITLE2=Big Joe Turner - Shake, Rattle and Roll
TTITLE3=Jimmy Reed - Found Love
TTITLE4=Roy Milton - Information Blues
TTITLE5=Michael Bloomfield - Women Lovin' Each Other
TTITLE6=John Lee Hooker - Everybody Rockin'
TTITLE7=Elmore James - Look On Yonder Wall
TTITLE8=Ray Charles - Blues Is My Middle Name
TTITLE9=B. B. King - A New Way Of Driving
TTITLE10=James Cotton - You Know It Ain't Right
TTITLE11=Jimmy Reed - Hush Hush
EXTD=
EXTT0=
EXTT1=
EXTT2=
EXTT3=
EXTT4=
EXTT5=
EXTT6=
EXTT7=
EXTT8=
EXTT9=
EXTT10=
EXTT11=
PLAYORDER=
